<svg width="76" height="75" viewBox="0 0 76 75" fill="none" xmlns="http://www.w3.org/2000/svg">
<path d="M25.4202 58.2129C25.4202 58.5058 25.0678 58.7402 24.6234 58.7402C24.1178 58.7842 23.7654 58.5498 23.7654 58.2129C23.7654 57.9199 24.1178 57.6856 24.5621 57.6856C25.0218 57.6416 25.4202 57.876 25.4202 58.2129ZM20.6548 57.5537C20.5476 57.8467 20.854 58.1836 21.3137 58.2715C21.7121 58.4179 22.1718 58.2715 22.2637 57.9785C22.3556 57.6856 22.0645 57.3486 21.6048 57.2168C21.2064 57.1142 20.7621 57.2608 20.6548 57.5537ZM27.4274 57.3046C26.983 57.4072 26.6766 57.6856 26.7226 58.0225C26.7686 58.3154 27.167 58.5058 27.6266 58.4033C28.071 58.3008 28.3774 58.0225 28.3314 57.7295C28.2855 57.4512 27.8718 57.2608 27.4274 57.3046ZM37.5096 1.17188C16.2572 1.17188 0 16.5967 0 36.9141C0 53.1592 10.6952 67.0606 25.9718 71.9531C27.933 72.29 28.6226 71.1328 28.6226 70.1806C28.6226 69.2725 28.5766 64.2627 28.5766 61.1865C28.5766 61.1865 17.8508 63.3838 15.5984 56.8213C15.5984 56.8213 13.8516 52.5586 11.3387 51.46C11.3387 51.46 7.82982 49.1602 11.5838 49.2041C11.5838 49.2041 15.3992 49.4971 17.4984 52.9834C20.854 58.6377 26.4774 57.0117 28.6686 56.0449C29.021 53.7012 30.017 52.0752 31.1202 51.1084C22.5548 50.2002 13.9129 49.0137 13.9129 34.9219C13.9129 30.8935 15.0774 28.8721 17.529 26.2939C17.1306 25.3418 15.8282 21.416 17.9274 16.3477C21.1298 15.3955 28.5 20.3027 28.5 20.3027C31.5645 19.4824 34.8588 19.0576 38.1226 19.0576C41.3863 19.0576 44.6806 19.4824 47.7452 20.3027C47.7452 20.3027 55.1154 15.3808 58.3178 16.3477C60.417 21.4306 59.1145 25.3418 58.7162 26.2939C61.1678 28.8867 62.6694 30.9082 62.6694 34.9219C62.6694 49.0576 53.6444 50.1856 45.079 51.1084C46.4887 52.2656 47.6838 54.4629 47.6838 57.9052C47.6838 62.8418 47.6379 68.9502 47.6379 70.1514C47.6379 71.1035 48.3428 72.2608 50.2887 71.9238C65.6113 67.0606 76 53.1592 76 36.9141C76 16.5967 58.7621 1.17188 37.5096 1.17188ZM14.8936 51.6943C14.6944 51.8408 14.7404 52.1777 15.0008 52.456C15.246 52.6904 15.5984 52.7929 15.7976 52.6025C15.9968 52.456 15.9508 52.1191 15.6904 51.8408C15.4452 51.6064 15.0928 51.5039 14.8936 51.6943ZM13.2387 50.5078C13.1314 50.6983 13.2846 50.9326 13.5912 51.0791C13.8363 51.2256 14.1428 51.1816 14.25 50.9766C14.3572 50.7861 14.204 50.5517 13.8976 50.4052C13.5912 50.3173 13.346 50.3613 13.2387 50.5078ZM18.2032 55.7227C17.958 55.9131 18.05 56.3525 18.4024 56.6308C18.7548 56.9677 19.1992 57.0117 19.3984 56.7773C19.5976 56.5869 19.5056 56.1475 19.1992 55.8691C18.8621 55.5322 18.4024 55.4883 18.2032 55.7227ZM16.4564 53.5693C16.2113 53.7158 16.2113 54.0967 16.4564 54.4336C16.7016 54.7705 17.1154 54.917 17.3145 54.7705C17.5596 54.58 17.5596 54.1992 17.3145 53.8623C17.1 53.5254 16.7016 53.3789 16.4564 53.5693Z" fill="#90BFCD"/>
</svg>
