<svg width="75" height="75" viewBox="0 0 75 75" fill="none" xmlns="http://www.w3.org/2000/svg">
<path d="M37.5082 18.271C26.867 18.271 18.2836 26.8562 18.2836 37.5C18.2836 48.1438 26.867 56.729 37.5082 56.729C48.1498 56.729 56.7332 48.1438 56.7332 37.5C56.7332 26.8562 48.1498 18.271 37.5082 18.271ZM37.5082 50.0015C30.6315 50.0015 25.0097 44.395 25.0097 37.5C25.0097 30.605 30.615 24.9986 37.5082 24.9986C44.4017 24.9986 50.007 30.605 50.007 37.5C50.007 44.395 44.385 50.0015 37.5082 50.0015ZM62.0038 17.4844C62.0038 19.978 59.9957 21.9695 57.5195 21.9695C55.0265 21.9695 53.0355 19.9612 53.0355 17.4844C53.0355 15.0075 55.0432 12.9993 57.5195 12.9993C59.9957 12.9993 62.0038 15.0075 62.0038 17.4844ZM74.7365 22.0364C74.452 16.0284 73.08 10.7065 68.6795 6.32182C64.2958 1.93713 58.9753 0.564823 52.9685 0.263583C46.7777 -0.087861 28.2223 -0.087861 22.0315 0.263583C16.0415 0.548088 10.7209 1.9204 6.32042 6.3051C1.91997 10.6897 0.564694 16.0117 0.263524 22.0197C-0.0878415 28.2118 -0.0878415 46.7715 0.263524 52.9635C0.547965 58.9715 1.91997 64.2935 6.32042 68.6782C10.7209 73.0627 16.0248 74.4352 22.0315 74.7365C28.2223 75.0877 46.7777 75.0877 52.9685 74.7365C58.9753 74.452 64.2958 73.0795 68.6795 68.6782C73.0633 64.2935 74.4352 58.9715 74.7365 52.9635C75.0877 46.7715 75.0877 28.2285 74.7365 22.0364ZM66.7387 59.6075C65.4337 62.8877 62.9072 65.4148 59.611 66.7367C54.6752 68.695 42.963 68.243 37.5082 68.243C32.0537 68.243 20.3248 68.6782 15.4057 66.7367C12.1263 65.4315 9.59985 62.9045 8.27805 59.6075C6.32042 54.6705 6.77218 42.9557 6.77218 37.5C6.77218 32.0443 6.33715 20.3127 8.27805 15.3925C9.58312 12.1123 12.1096 9.58522 15.4057 8.26312C20.3416 6.30508 32.0537 6.75695 37.5082 6.75695C42.963 6.75695 54.6917 6.32182 59.611 8.26312C62.8905 9.5685 65.417 12.0955 66.7387 15.3925C68.6962 20.3294 68.2445 32.0443 68.2445 37.5C68.2445 42.9557 68.6962 54.6872 66.7387 59.6075Z" fill="#90BFCD"/>
</svg>
